<?xml version="1.0" encoding="UTF-8" standalone="no"?>
<svg width="454px" height="280px" viewBox="0 0 454 280" version="1.1" xmlns="http://www.w3.org/2000/svg" xmlns:xlink="http://www.w3.org/1999/xlink">
    <!-- Generator: Sketch 41 (35326) - http://www.bohemiancoding.com/sketch -->
    <title>rails-logo 2</title>
    <desc>Created with Sketch.</desc>
    <defs></defs>
    <g id="Page-1" stroke="none" stroke-width="1" fill="none" fill-rule="evenodd">
        <g id="rails-logo" fill="#CFA6A6">
            <g id="Group">
                <path d="M14,279.2 L172,279.2 C172,279.2 141.8,141.4 241.8,85.6 C263.6,75 333,35.4 446.6,119.4 C450.2,116.4 453.6,114 453.6,114 C453.6,114 349.6,10.2 233.8,21.8 C175.6,27 104,80 62,150 C20,220 14,279.2 14,279.2 L14,279.2 Z" id="Shape"></path>
                <path d="M343.2,33 L344,19.6 C342.2,18.6 337.2,16.2 324.6,12.6 L323.8,25.8 C330.4,28 336.8,30.4 343.2,33 L343.2,33 Z" id="Shape"></path>
                <path d="M324.2,75.4 L323.4,88 C330,88.2 336.6,89 343.2,90.4 L344,78 C337.2,76.6 330.6,75.8 324.2,75.4 L324.2,75.4 Z" id="Shape"></path>
                <path d="M250.2,13 L252.2,13 L248.2,0.8 C242,0.8 235.6,1.2 229,2 L232.8,13.8 C238.6,13.2 244.4,13 250.2,13 L250.2,13 Z" id="Shape"></path>
                <path d="M259.8,86.6 L264.4,100.4 C270.2,97.6 276,95.2 281.8,93.4 L277.4,80.2 C270.6,82.2 264.8,84.4 259.8,86.6 L259.8,86.6 Z" id="Shape"></path>
                <path d="M169,34 L160,20.2 C155,22.8 149.8,25.6 144.4,28.8 L153.6,42.8 C158.8,39.6 163.8,36.6 169,34 L169,34 Z" id="Shape"></path>
                <path d="M210,124 L219.6,138.4 C223,133.4 227,128.8 231.4,124.2 L222.4,110.6 C217.8,114.8 213.6,119.4 210,124 L210,124 Z" id="Shape"></path>
                <path d="M181,188.4 L197.2,201.2 C198,193.4 199.4,185.6 201.4,177.8 L187,166.4 C184.4,173.8 182.6,181.2 181,188.4 L181,188.4 Z" id="Shape"></path>
                <path d="M93.4,93.4 L79.2,81 C74,86 69,91 64.4,96 L79.8,109.2 C84,103.8 88.6,98.4 93.4,93.4 L93.4,93.4 Z" id="Shape"></path>
                <path d="M33,182.8 L10,174.4 C6.2,183 2,193 0,198.4 L23,206.8 C25.6,200 29.8,190.2 33,182.8 L33,182.8 Z" id="Shape"></path>
                <path d="M178,239.2 C178.4,249.8 179.4,258.4 180.4,264.4 L204.4,273 C202.6,265.2 200.8,256.4 199.6,247 L178,239.2 L178,239.2 Z" id="Shape"></path>
            </g>
        </g>
    </g>
</svg>